<?xml version="1.0" standalone="no"?>
<!DOCTYPE svg PUBLIC "-//W3C//DTD SVG 20010904//EN"
 "http://www.w3.org/TR/2001/REC-SVG-20010904/DTD/svg10.dtd">
<svg version="1.0" xmlns="http://www.w3.org/2000/svg"
 width="512.000000pt" height="512.000000pt" viewBox="0 0 512.000000 512.000000"
 preserveAspectRatio="xMidYMid meet">

<g transform="translate(0.000000,512.000000) scale(0.100000,-0.100000)"
fill="#000000" stroke="none">
<path d="M3070 4650 c-19 -4 -70 -22 -114 -39 -87 -36 -131 -36 -167 0 -20 20
-21 20 -34 2 -8 -10 -15 -31 -15 -46 0 -15 -7 -39 -16 -53 -24 -36 -5 -91 46
-138 25 -22 37 -41 34 -51 -4 -8 1 -17 10 -21 26 -10 19 -20 -24 -33 -21 -6
-42 -16 -45 -22 -13 -20 8 -73 45 -113 21 -23 48 -66 60 -96 12 -30 27 -66 34
-79 11 -25 60 -51 96 -51 25 0 27 -19 3 -26 -50 -15 -84 -37 -148 -94 -77 -68
-411 -296 -448 -305 -13 -4 -93 13 -192 41 -94 26 -194 51 -222 57 -32 6 -53
16 -53 24 0 26 -39 53 -78 53 -43 0 -89 -27 -74 -42 13 -13 4 -38 -13 -38 -8
0 -26 4 -40 10 l-26 10 27 50 c23 43 26 56 18 87 -13 50 -66 79 -120 64 -27
-8 -42 -7 -51 1 -20 16 -105 27 -126 16 -48 -25 -73 -122 -43 -163 12 -16 29
-20 94 -23 82 -4 122 7 122 33 0 8 -9 15 -20 15 -30 0 -26 44 6 69 36 28 70
27 89 -3 21 -31 7 -91 -31 -131 -14 -15 -24 -29 -22 -31 7 -7 123 -34 145 -34
18 0 25 7 30 31 8 40 45 56 79 34 32 -21 30 -41 -11 -102 -32 -48 -37 -51 -62
-43 -115 37 -158 52 -195 71 -74 38 -228 38 -228 0 0 -4 35 -6 78 -6 70 0 84
-4 157 -40 l80 -40 -48 -3 c-35 -2 -58 3 -84 18 -46 27 -53 19 -15 -20 26 -26
38 -30 82 -30 28 0 64 7 81 15 38 20 99 11 99 -15 0 -24 23 -42 109 -85 116
-58 483 -176 498 -161 16 15 -13 35 -74 51 -155 41 -436 142 -431 154 2 5 17
38 33 75 25 54 34 66 50 63 11 -3 65 -16 120 -30 55 -14 123 -29 150 -33 28
-3 64 -13 80 -20 29 -14 35 -12 107 27 42 23 125 79 185 126 107 83 108 84
111 56 2 -15 -1 -52 -7 -83 -6 -30 -13 -83 -17 -118 -6 -52 -11 -65 -28 -72
-12 -4 -66 -36 -121 -70 -145 -90 -173 -120 -116 -120 34 0 103 35 189 97 l63
45 -6 -39 c-4 -21 -13 -63 -20 -93 -28 -114 -36 -211 -36 -395 1 -217 12 -284
50 -300 l24 -10 -6 -405 c-6 -471 7 -1188 21 -1202 6 -6 8 -25 5 -43 -4 -26
-1 -36 13 -45 26 -16 20 -84 -7 -104 -11 -7 -17 -20 -14 -28 8 -21 -181 -147
-253 -170 -69 -21 -102 -44 -102 -68 0 -35 43 -44 220 -44 171 0 305 15 328
38 17 16 1 218 -17 224 -8 3 -10 22 -5 65 5 47 13 69 32 89 22 24 26 38 28
105 2 43 8 130 13 193 6 63 20 326 31 585 25 565 31 678 36 672 6 -5 76 -246
124 -425 47 -174 73 -253 137 -402 78 -182 226 -471 265 -515 20 -23 43 -61
51 -83 24 -69 7 -265 -35 -402 -11 -36 -20 -75 -20 -88 -1 -63 82 -83 144 -35
40 32 74 79 84 117 10 41 -11 31 -40 -18 -34 -58 -80 -96 -117 -96 -40 0 -44
18 -20 92 24 72 51 222 51 280 0 32 4 40 26 48 45 17 61 13 66 -20 3 -16 0
-34 -5 -39 -10 -10 -14 -108 -4 -118 4 -3 7 -19 7 -35 0 -15 4 -28 10 -28 11
0 17 24 25 105 3 33 8 81 11 106 5 38 2 50 -19 75 -28 34 -41 88 -38 165 2 81
-11 88 -84 44 -32 -19 -61 -33 -63 -30 -6 6 -10 3 66 54 45 30 62 48 62 64 0
34 -106 401 -146 504 -19 50 -46 108 -60 128 -13 20 -24 48 -24 64 0 15 -11
108 -25 207 -13 98 -29 226 -36 283 -12 112 -10 121 39 121 20 0 22 4 22 65 0
44 4 67 14 72 35 21 125 226 105 239 -16 9 -24 -2 -78 -113 -47 -96 -52 -102
-88 -111 -74 -19 -93 -22 -93 -17 0 6 83 104 265 310 53 61 104 123 112 139
28 54 13 150 -57 356 -34 102 -68 192 -76 201 -8 8 -26 44 -40 80 -32 80 -43
92 -117 131 -33 18 -64 42 -70 55 -6 14 -25 28 -49 35 -23 7 -48 25 -64 45
-35 46 -47 42 -39 -11 9 -60 -7 -105 -56 -155 -37 -38 -45 -41 -94 -41 -72 0
-83 15 -60 77 9 27 18 60 19 75 0 16 16 41 39 64 43 44 49 64 10 38 -54 -35
-79 -44 -121 -44 -48 0 -67 16 -94 82 -23 57 -22 78 1 78 11 0 30 13 44 29
l24 30 12 -25 c26 -58 101 -7 101 69 0 34 2 38 15 27 8 -7 15 -19 15 -27 0
-11 7 -13 33 -7 17 4 42 8 54 9 13 1 26 5 30 8 11 12 50 8 62 -7 13 -15 5 -45
-13 -47 -6 -1 -18 -2 -26 -3 -12 -1 -16 -19 -18 -83 -2 -47 1 -83 6 -83 10 0
22 47 22 85 0 12 9 30 21 41 45 41 99 180 99 256 0 27 -7 62 -15 78 -8 16 -14
35 -13 42 2 8 -7 12 -24 11 -23 -1 -28 2 -28 21 0 32 -59 85 -115 102 -27 7
-51 13 -54 13 -3 -1 -22 -5 -41 -9z m68 -254 c0 -24 8 -58 17 -76 9 -17 15
-33 13 -35 -2 -2 -73 -5 -158 -7 -145 -3 -155 -2 -152 15 3 19 60 107 77 119
6 4 42 8 80 9 56 1 105 8 122 18 1 1 1 -19 1 -43z m-225 -167 c13 -20 1 -68
-18 -76 -24 -8 -45 16 -45 52 0 45 40 60 63 24z m105 9 c25 -25 8 -78 -25 -78
-20 0 -44 62 -31 78 13 15 40 16 56 0z m-198 -44 c0 -38 -3 -45 -17 -42 -20 4
-39 48 -30 72 4 9 16 16 27 16 17 0 20 -6 20 -46z m494 -313 c14 -16 16 -30
11 -74 -7 -52 -9 -56 -62 -93 -53 -37 -57 -43 -80 -117 -13 -44 -22 -82 -19
-85 10 -9 34 29 53 81 21 56 31 67 96 107 47 29 47 30 47 85 0 41 4 55 14 55
19 0 96 -59 110 -84 6 -11 28 -47 49 -80 35 -56 37 -62 21 -71 -10 -5 -28 -20
-40 -32 -20 -18 -22 -26 -14 -53 17 -61 52 -76 97 -45 25 17 20 26 59 -120 8
-33 24 -91 35 -130 25 -95 24 -125 -8 -173 -58 -84 -305 -363 -320 -360 -8 2
-30 23 -48 48 l-33 45 120 180 c66 99 122 185 125 192 2 6 -5 24 -16 40 -11
15 -52 98 -89 183 -106 239 -112 250 -133 250 -18 0 -18 -2 2 -52 11 -29 31
-73 44 -98 30 -59 69 -153 90 -215 9 -27 23 -60 31 -72 8 -12 14 -27 14 -32 0
-6 -36 -69 -80 -141 -44 -72 -96 -160 -116 -197 -32 -60 -34 -67 -19 -82 8
-10 15 -23 15 -29 0 -7 3 -12 8 -12 4 0 24 -16 44 -35 38 -36 42 -65 8 -65
-22 0 -39 20 -49 57 -10 37 -23 33 -36 -14 l-12 -38 -7 45 c-5 25 -30 131 -56
235 -99 386 -112 523 -64 657 33 90 85 195 130 261 19 27 37 60 40 73 7 29 15
30 38 5z m-364 -117 c-37 -78 -95 -256 -120 -371 -18 -80 -81 -608 -88 -738
-6 -108 -10 -130 -23 -133 -22 -4 -29 53 -29 237 0 164 8 245 50 476 15 88 36
221 45 295 15 115 22 140 43 165 14 17 30 43 37 58 12 30 118 121 123 107 2
-4 -16 -47 -38 -96z m-1432 10 c20 -14 21 -17 7 -37 -27 -39 -18 -63 23 -58 6
1 12 -3 12 -9 0 -14 -103 -13 -122 3 -14 10 -15 20 -9 56 12 61 43 77 89 45z
m1312 -38 c0 -20 -19 -31 -32 -18 -6 6 -7 15 -4 21 10 16 36 13 36 -3z m760
-161 c0 -12 -34 -43 -42 -38 -5 3 -2 14 8 24 16 18 34 25 34 14z m20 -40 c0
-8 -2 -15 -4 -15 -2 0 -6 7 -10 15 -3 8 -1 15 4 15 6 0 10 -7 10 -15z m-1660
-5 c0 -24 -61 -130 -75 -130 -23 0 -18 27 18 86 29 48 57 70 57 44z m1617 -26
c-3 -3 -12 -4 -19 -1 -8 3 -5 6 6 6 11 1 17 -2 13 -5z m-679 -884 c46 -11 95
-20 110 -20 15 0 34 -5 42 -10 10 -6 -3 -8 -40 -4 -82 8 -203 33 -214 44 -15
15 8 12 102 -10z m595 -67 c8 -45 -6 -63 -47 -63 -17 0 -53 -7 -80 -15 -31 -9
-53 -12 -59 -6 -5 5 -12 30 -15 56 l-5 47 39 -6 c22 -3 63 0 94 8 30 8 58 14
61 15 4 1 9 -16 12 -36z m223 -1580 c20 -26 18 -63 -4 -63 -27 0 -45 35 -30
60 16 24 17 25 34 3z m-816 -103 l65 -7 -61 -2 c-72 -1 -124 8 -124 21 0 6 11
7 28 3 15 -4 56 -11 92 -15z m855 1 c-8 -13 -44 -20 -51 -10 -3 5 5 13 18 18
24 9 42 5 33 -8z m-886 -117 c25 -5 29 -9 20 -20 -14 -17 -41 -18 -57 -2 -26
26 -15 32 37 22z m16 -74 c-3 -5 -15 -10 -25 -10 -10 0 -22 5 -25 10 -4 6 7
10 25 10 18 0 29 -4 25 -10z m-22 -65 c15 -2 32 -3 37 -4 6 0 10 -14 10 -31 0
-16 -4 -30 -10 -30 -5 0 -10 -4 -10 -10 0 -5 7 -7 15 -4 12 5 15 -4 15 -44 l0
-50 -62 -11 c-147 -27 -404 -26 -395 2 4 14 85 35 140 36 35 1 55 21 21 21
-29 0 2 25 64 53 35 16 65 38 77 57 17 25 24 29 45 24 14 -4 37 -8 53 -9z"/>
<path d="M3032 4312 c-26 -4 -20 -22 8 -22 20 0 36 16 23 22 -5 2 -18 2 -31 0z"/>
<path d="M2886 4214 c-7 -18 0 -34 15 -34 5 0 9 11 9 25 0 28 -15 34 -24 9z"/>
<path d="M2990 4220 c0 -5 5 -10 10 -10 6 0 10 5 10 10 0 6 -4 10 -10 10 -5 0
-10 -4 -10 -10z"/>
<path d="M3165 3473 c-45 -12 -54 -74 -17 -115 24 -28 106 -25 126 4 19 27 21
68 4 91 -14 17 -80 29 -113 20z"/>
<path d="M2657 503 c-12 -11 -8 -23 8 -23 8 0 15 7 15 15 0 16 -12 20 -23 8z"/>
<path d="M1530 4415 c0 -10 6 -12 18 -8 15 6 15 5 3 -10 -11 -14 -11 -18 1
-22 7 -3 115 -4 238 -3 192 3 225 5 225 18 0 13 -32 15 -220 18 -126 1 -224 7
-229 12 -15 15 -36 12 -36 -5z"/>
<path d="M3921 4391 c-28 -18 6 -41 63 -41 147 -1 316 -62 423 -152 111 -93
208 -245 234 -367 14 -65 24 -81 51 -81 18 0 19 4 13 38 -11 63 -55 185 -85
237 -71 122 -204 250 -316 301 -105 49 -347 90 -383 65z"/>
<path d="M1065 4361 c-220 -64 -401 -259 -476 -512 -20 -66 -22 -103 -26 -356
-5 -250 -3 -283 10 -283 9 0 19 5 23 12 4 7 11 123 15 258 5 152 14 270 23
312 31 142 97 266 191 362 104 106 220 164 350 173 78 6 102 17 84 39 -16 20
-120 17 -194 -5z"/>
<path d="M1460 4063 c-71 -6 -67 -20 5 -19 36 1 64 5 62 10 -4 12 -12 13 -67
9z"/>
<path d="M1666 4051 c-6 -10 49 -61 65 -61 5 0 12 7 16 16 7 19 -24 47 -44 40
-7 -3 -13 -1 -13 4 0 13 -17 13 -24 1z m64 -31 c0 -5 -2 -10 -4 -10 -3 0 -8 5
-11 10 -3 6 -1 10 4 10 6 0 11 -4 11 -10z"/>
<path d="M1237 3982 c-28 -29 -35 -52 -16 -52 16 0 79 54 79 68 0 22 -35 13
-63 -16z"/>
<path d="M1437 3963 c-16 -16 -4 -24 30 -21 48 4 57 28 11 28 -19 0 -38 -3
-41 -7z"/>
<path d="M1456 3902 c-8 -14 55 -31 114 -31 l55 0 -24 20 c-17 14 -39 19 -82
19 -32 0 -60 -4 -63 -8z"/>
<path d="M1358 3883 c-18 -21 -40 -84 -33 -92 8 -7 84 80 85 97 0 18 -35 15
-52 -5z"/>
<path d="M1925 3890 c-4 -6 -5 -14 -2 -16 3 -3 -4 -30 -15 -61 -12 -36 -16
-59 -9 -66 16 -16 27 -1 46 63 17 55 17 62 3 76 -11 12 -18 13 -23 4z"/>
<path d="M1667 3883 c-13 -12 -7 -23 23 -38 33 -17 41 -5 16 28 -14 18 -28 22
-39 10z"/>
<path d="M1900 3855 c-7 -9 -8 -15 -2 -15 5 0 12 7 16 15 3 8 4 15 2 15 -2 0
-9 -7 -16 -15z"/>
<path d="M1026 3764 c-3 -9 -6 -46 -6 -84 0 -76 14 -99 49 -81 16 9 20 23 23
88 2 45 -1 81 -7 85 -18 13 -53 8 -59 -8z m43 -56 c-1 -87 -17 -105 -18 -20
-1 42 3 72 9 72 6 0 10 -24 9 -52z"/>
<path d="M1637 3743 c-12 -11 -8 -23 8 -23 8 0 15 7 15 15 0 16 -12 20 -23 8z"/>
<path d="M1230 3657 c0 -52 32 -73 64 -41 20 19 11 37 -15 29 -15 -5 -19 -1
-19 19 0 16 -6 26 -15 26 -10 0 -15 -10 -15 -33z"/>
<path d="M4275 3663 c-93 -2 -174 -8 -179 -13 -10 -10 -9 -367 1 -383 16 -27
24 36 21 185 -2 91 1 170 5 175 5 4 137 8 293 8 275 0 284 -1 291 -20 4 -11 8
-267 9 -570 1 -302 4 -566 6 -585 l3 -35 -159 -3 c-176 -3 -196 3 -196 60 0
15 -4 28 -10 28 -5 0 -10 -16 -10 -35 0 -42 39 -86 69 -78 10 3 21 -2 24 -10
4 -11 33 -14 136 -16 182 -3 171 -19 171 252 0 116 3 390 7 608 6 381 5 397
-13 415 -21 21 -104 24 -469 17z"/>
<path d="M4243 3524 c-22 -5 -23 -10 -23 -90 l0 -84 105 0 105 0 0 85 c0 83
-1 85 -24 85 -12 0 -50 2 -82 4 -32 3 -69 2 -81 0z m155 -81 l3 -53 -80 0 -81
0 0 55 0 56 78 -3 77 -3 3 -52z"/>
<path d="M4517 3512 c-21 -23 -22 -32 -2 -32 8 0 15 7 15 15 0 21 27 19 39 -2
5 -10 13 -14 17 -10 12 12 -10 42 -33 45 -10 2 -27 -6 -36 -16z"/>
<path d="M1322 3483 c8 -45 108 -57 108 -13 0 23 -4 24 -29 11 -12 -7 -26 -5
-45 5 -36 18 -38 18 -34 -3z"/>
<path d="M4576 3446 c3 -8 -3 -19 -15 -26 -17 -9 -22 -8 -27 5 -8 19 -34 20
-34 0 0 -25 46 -41 75 -25 26 14 39 36 29 51 -9 15 -34 10 -28 -5z"/>
<path d="M4493 3343 l-33 -4 0 -72 c1 -40 5 -91 9 -114 l8 -43 -183 0 c-116 0
-184 -4 -184 -10 0 -6 90 -10 250 -10 225 0 282 6 235 24 -12 4 -13 20 -8 85
7 89 -12 152 -45 149 -9 0 -32 -3 -49 -5z m67 -138 l0 -95 -35 0 -35 0 0 95 0
95 35 0 35 0 0 -95z"/>
<path d="M4227 3313 c-19 -18 2 -23 99 -23 80 0 105 3 102 13 -5 13 -189 23
-201 10z"/>
<path d="M1108 3242 c-15 -2 -36 -14 -47 -28 -10 -13 -24 -24 -29 -24 -6 0
-12 -19 -14 -42 l-3 -43 -215 -5 c-238 -6 -251 -9 -308 -74 -17 -20 -36 -52
-41 -73 -7 -25 -11 -252 -11 -645 0 -493 2 -609 13 -615 8 -4 16 -16 20 -25
23 -63 27 16 29 620 l3 638 25 37 c14 21 45 47 70 59 45 22 50 22 658 26 556
4 617 3 657 -12 59 -23 91 -50 118 -99 l22 -42 0 -610 0 -610 -34 -73 c-38
-80 -73 -116 -126 -131 -22 -6 -222 -8 -512 -5 -446 5 -478 6 -490 23 -24 35
-76 51 -170 51 -70 0 -96 4 -127 21 -21 11 -40 18 -43 16 -2 -3 9 -20 25 -38
30 -33 32 -34 131 -40 88 -5 105 -9 126 -29 14 -13 25 -29 25 -37 0 -11 98
-13 540 -13 519 0 542 1 579 20 45 22 75 57 92 105 12 31 14 33 48 27 20 -4
135 -7 256 -7 213 0 220 1 220 20 0 19 -8 20 -255 25 -140 3 -254 8 -253 13
21 89 23 165 21 723 l-3 609 -27 47 c-20 33 -41 53 -75 70 -44 21 -63 23 -230
26 l-183 4 0 42 c0 47 -25 83 -63 90 -29 6 -385 13 -419 8z m436 -45 c13 -9
17 -23 14 -52 l-3 -40 -200 -2 c-110 -2 -220 1 -245 5 -43 7 -45 9 -45 42 0
55 20 60 256 60 152 0 210 -3 223 -13z"/>
<path d="M1134 3181 c-23 -10 -38 -37 -28 -52 3 -5 88 -9 189 -9 177 0 185 1
196 21 7 15 8 24 1 31 -14 14 -330 21 -358 9z"/>
<path d="M4002 2988 c-14 -14 -16 -123 -5 -268 9 -135 -5 -130 346 -130 152 0
277 1 278 3 0 1 3 49 5 107 5 114 0 155 -18 144 -7 -5 -9 -40 -5 -114 l6 -106
-77 3 c-42 1 -175 3 -294 3 l-218 0 11 27 c6 16 9 86 8 158 l-2 130 299 2
c259 2 299 4 302 18 3 13 -32 15 -297 15 -189 0 -302 4 -306 10 -8 13 -18 13
-33 -2z"/>
<path d="M4350 2816 c0 -63 21 -86 77 -86 49 0 73 29 73 90 l0 50 -75 0 -75 0
0 -54z m117 28 c-3 -3 -12 -4 -19 -1 -8 3 -5 6 6 6 11 1 17 -2 13 -5z m-57
-49 c8 -7 24 -15 35 -17 19 -5 19 -5 1 -13 -22 -10 -43 2 -65 35 -14 21 -14
23 -1 16 8 -5 22 -15 30 -21z m65 15 c3 -5 -1 -10 -9 -10 -8 0 -18 5 -21 10
-3 6 1 10 9 10 8 0 18 -4 21 -10z"/>
<path d="M753 2843 c-46 -6 -73 -44 -72 -102 l1 -46 8 38 c4 20 17 49 30 62
21 22 31 25 102 25 43 0 78 -4 78 -9 0 -5 -19 -22 -42 -38 -60 -40 -81 -74
-86 -136 -6 -72 12 -82 29 -15 9 40 24 65 61 104 26 28 48 56 48 61 0 18 883
42 909 25 11 -8 11 -21 2 -74 -12 -69 -13 -480 -2 -583 5 -51 8 -57 17 -40 7
13 14 142 18 357 7 332 7 337 -13 357 -21 21 -27 21 -538 19 -285 0 -533 -3
-550 -5z"/>
<path d="M4560 2785 c0 -37 4 -65 10 -65 6 0 10 28 10 65 0 37 -4 65 -10 65
-6 0 -10 -28 -10 -65z"/>
<path d="M1323 2723 c-42 -23 -69 -61 -154 -215 -39 -69 -77 -129 -85 -132
-17 -6 -17 -18 -3 -69 16 -58 39 -63 289 -62 l215 0 23 45 c30 57 26 78 -39
182 -29 46 -67 115 -84 153 -18 39 -41 78 -52 87 -30 27 -73 31 -110 11z m113
-125 c25 -50 67 -123 94 -162 85 -128 77 -156 -48 -155 -42 0 -95 3 -117 7
-36 6 -40 11 -43 39 -4 37 22 93 43 93 31 0 73 -98 52 -120 -9 -10 -8 -12 6
-6 10 3 23 6 29 6 20 0 -1 73 -38 132 -34 56 -36 69 -19 111 4 10 3 17 -4 17
-17 0 -98 -131 -111 -179 -7 -25 -9 -58 -6 -74 l6 -29 -48 4 c-26 3 -55 8 -64
12 -11 5 -18 4 -18 -3 0 -6 15 -15 33 -20 l32 -9 -34 -1 c-19 -1 -43 6 -53 16
-23 21 -23 74 0 94 9 8 46 65 82 127 78 137 122 192 156 192 20 0 31 -14 70
-92z"/>
<path d="M1572 2720 c-48 -45 -40 -106 21 -163 35 -32 47 -38 71 -33 38 8 56
24 73 64 31 75 -19 152 -101 152 -29 0 -49 -7 -64 -20z m102 -36 c25 -25 21
-81 -8 -99 -19 -13 -29 -14 -45 -5 -47 24 -52 87 -9 108 32 15 44 14 62 -4z"/>
<path d="M692 2635 c0 -16 2 -22 5 -12 2 9 2 23 0 30 -3 6 -5 -1 -5 -18z"/>
<path d="M687 2593 c-4 -3 -7 -85 -6 -182 0 -208 10 -248 74 -293 33 -23 58
-30 132 -39 51 -5 112 -8 135 -5 24 2 122 5 219 5 138 1 179 4 195 16 41 31
-1 36 -306 33 -330 -3 -331 -3 -385 68 -28 37 -28 39 -35 215 -5 171 -9 197
-23 182z"/>
<path d="M4414 2505 c-9 -36 2 -55 30 -55 29 0 50 31 41 60 -4 14 -15 20 -35
20 -23 0 -31 -5 -36 -25z m49 -20 c1 -5 -6 -11 -15 -13 -11 -2 -18 3 -18 13 0
17 30 18 33 0z"/>
<path d="M4566 2522 c-3 -5 -2 -19 1 -31 7 -27 46 -25 51 3 6 27 -38 50 -52
28z"/>
<path d="M4625 2023 c-40 -82 -61 -111 -134 -184 -73 -72 -102 -94 -181 -133
-149 -72 -223 -88 -445 -95 -166 -5 -190 -8 -193 -23 -3 -13 9 -18 65 -24 95
-10 337 2 403 20 248 68 445 228 547 441 35 75 36 95 3 95 -13 0 -31 -27 -65
-97z"/>
<path d="M773 2003 c-17 -2 -37 -11 -43 -19 -11 -12 57 -14 521 -13 533 0 639
5 609 24 -15 10 -1019 17 -1087 8z"/>
<path d="M3636 1923 c-17 -17 0 -23 66 -23 50 0 69 3 62 10 -12 12 -118 23
-128 13z"/>
<path d="M3800 1915 c0 -13 16 -15 118 -13 153 4 151 22 -3 26 -99 2 -115 0
-115 -13z"/>
<path d="M760 1881 c-55 -28 -83 -77 -77 -132 7 -82 56 -129 133 -129 71 0
152 70 161 139 14 103 -115 177 -217 122z m139 -47 c55 -46 35 -131 -39 -169
-43 -22 -73 -18 -102 13 -36 37 -43 73 -23 115 31 65 112 85 164 41z"/>
<path d="M1646 1884 c-10 -25 -7 -34 9 -34 8 0 15 9 15 19 0 26 -16 35 -24 15z"/>
<path d="M1850 1867 c0 -7 5 -18 12 -25 20 -20 38 -14 38 13 0 20 -5 25 -25
25 -14 0 -25 -6 -25 -13z"/>
<path d="M1092 1853 c-24 -10 -34 -53 -18 -79 21 -31 52 -39 81 -20 61 40 6
127 -63 99z m63 -53 c0 -23 -49 -20 -53 3 -3 15 2 18 25 15 17 -2 28 -9 28
-18z"/>
<path d="M1247 1842 c-23 -25 -22 -69 2 -82 47 -25 101 -2 101 44 0 49 -70 75
-103 38z m62 -21 c17 -11 7 -41 -13 -41 -19 0 -29 17 -22 35 6 17 15 18 35 6z"/>
<path d="M1725 1852 c-75 -5 -98 -31 -93 -104 3 -47 2 -54 -8 -40 -11 14 -15
15 -26 4 -11 -11 -9 -17 11 -33 26 -21 41 -24 41 -9 0 6 18 1 40 -10 36 -18
43 -19 68 -6 47 24 65 51 57 85 -6 28 -4 31 18 31 21 0 24 -4 20 -21 -5 -17
-2 -20 18 -17 19 2 24 9 24 33 0 27 -3 30 -33 31 -23 0 -41 9 -60 30 -24 26
-32 29 -77 26z m62 -81 c8 -16 8 -31 2 -42 -21 -39 -92 -35 -111 6 -26 58 80
93 109 36z"/>
<path d="M1575 1810 c-7 -12 2 -30 15 -30 5 0 14 9 20 20 9 17 8 20 -9 20 -11
0 -23 -4 -26 -10z"/>
<path d="M1842 1683 c2 -10 10 -18 18 -18 8 0 16 8 18 18 2 12 -3 17 -18 17
-15 0 -20 -5 -18 -17z"/>
<path d="M1695 1600 c-7 -23 5 -44 12 -22 4 10 9 9 24 -4 25 -23 50 -4 33 24
-17 26 -61 28 -69 2z"/>
<path d="M3108 1594 c-4 -3 -4 -12 -1 -20 4 -10 24 -14 70 -14 56 0 64 2 61
18 -3 13 -15 18 -64 20 -33 2 -63 0 -66 -4z"/>
</g>
</svg>
